<svg width="1910" height="1386" viewBox="0 0 1910 1386" fill="none" xmlns="http://www.w3.org/2000/svg">
<path opacity="0.5" d="M2502.29 551.973C2494.84 420.985 2397.18 154.902 2066.11 138.473C1652.27 117.938 1359.97 -15.4899 1314.45 -239.277C1256.14 -525.956 1220.35 -796.702 801.592 -752.216M2469.95 670.264C2462.5 539.276 2364.84 273.193 2033.77 256.765C1619.93 236.229 1327.63 102.801 1282.11 -120.986C1223.8 -407.665 1188.01 -678.411 769.252 -633.925M2381.62 695.872C2374.18 564.884 2276.52 298.801 1945.45 282.373C1531.61 261.838 1239.31 128.41 1193.79 -95.3775C1135.48 -382.056 1099.69 -652.803 680.929 -608.316M2296.54 746.097C2289.1 615.109 2191.44 349.026 1860.37 332.598C1446.53 312.062 1154.23 178.634 1108.71 -45.1529C1050.39 -331.832 1014.6 -602.578 595.846 -558.092M2264.05 797.296C2256.6 666.308 2158.94 400.225 1827.87 383.797C1414.03 363.262 1121.73 229.834 1076.21 6.04628C1017.9 -280.633 982.108 -551.379 563.351 -506.892M2199.59 879.476C2192.14 748.488 2094.49 482.405 1763.41 465.977C1349.58 445.441 1057.27 312.013 1011.76 88.2262C953.443 -198.453 917.652 -469.199 498.895 -424.713M2100.59 982.432C2093.15 851.444 1995.49 585.361 1664.42 568.933C1250.58 548.397 958.28 414.969 912.76 191.182C854.449 -95.497 818.658 -366.243 399.9 -321.757M2039.43 1051.5C2031.99 920.517 1934.33 654.434 1603.26 638.005C1189.42 617.47 897.116 484.042 851.596 260.255C793.285 -26.424 757.494 -297.17 338.736 -252.684M1941.22 1142.94C1933.78 1011.95 1836.12 745.869 1505.05 729.441C1091.21 708.905 798.908 575.477 753.389 351.69C695.077 65.011 659.286 -205.735 240.529 -161.249M1893.81 1182.51C1886.36 1051.52 1788.7 785.439 1457.63 769.011C1043.79 748.475 751.493 615.047 705.973 391.26C647.662 104.581 611.871 -166.165 193.113 -121.679M1851.79 1268.43C1844.34 1137.44 1746.68 871.358 1415.61 854.93C1001.77 834.394 709.473 700.966 663.953 477.179C605.642 190.5 569.851 -80.246 151.093 -35.7597M1748.2 1299.4C1740.75 1168.42 1643.09 902.333 1312.02 885.905C898.183 865.37 605.882 731.942 560.363 508.155C502.051 221.476 466.26 -49.2704 47.5027 -4.78403M1702.81 1383.51C1695.37 1252.52 1597.71 986.437 1266.64 970.009C852.799 949.474 560.498 816.046 514.979 592.258C456.667 305.58 420.876 34.8334 2.11865 79.3197" stroke="url(#paint0_radial_89_2023)" stroke-width="4" stroke-linecap="round"/>
<defs>
<radialGradient id="paint0_radial_89_2023" cx="0" cy="0" r="1" gradientUnits="userSpaceOnUse" gradientTransform="translate(1432.04 -60.2405) rotate(123.566) scale(1056.37 1040.84)">
<stop stop-color="#E43600"/>
<stop offset="1" stop-color="#E43600" stop-opacity="0"/>
</radialGradient>
</defs>
</svg>
